<svg xmlns="http://www.w3.org/2000/svg" xmlns:xlink="http://www.w3.org/1999/xlink" width="438" zoomAndPan="magnify" viewBox="0 0 328.5 255.749992" height="341" preserveAspectRatio="xMidYMid meet" version="1.0"><defs><clipPath id="1463b1ca3e"><path d="M 64 0.0703125 L 189 0.0703125 L 189 125 L 64 125 Z M 64 0.0703125 " clip-rule="nonzero"/></clipPath><clipPath id="62e02de10a"><path d="M 2 137 L 251 137 L 251 255.429688 L 2 255.429688 Z M 2 137 " clip-rule="nonzero"/></clipPath></defs><g clip-path="url(#1463b1ca3e)"><path fill="#40646b" d="M 188.683594 62.59375 C 188.683594 28.363281 160.839844 0.511719 126.605469 0.511719 C 92.371094 0.511719 64.527344 28.363281 64.527344 62.59375 C 64.527344 96.816406 92.371094 124.667969 126.605469 124.667969 C 160.839844 124.667969 188.683594 96.816406 188.683594 62.59375 Z M 86.058594 62.59375 C 86.058594 40.234375 104.246094 22.042969 126.605469 22.042969 C 148.960938 22.042969 167.152344 40.234375 167.152344 62.59375 C 167.152344 84.949219 148.960938 103.136719 126.605469 103.136719 C 104.246094 103.136719 86.058594 84.949219 86.058594 62.59375 Z M 86.058594 62.59375 " fill-opacity="1" fill-rule="nonzero"/></g><g clip-path="url(#62e02de10a)"><path fill="#40646b" d="M 2.503906 236.632812 C 2.503906 247.3125 11.195312 256 21.875 256 L 231.339844 256 C 242.019531 256 250.707031 247.3125 250.707031 236.632812 C 250.707031 182.011719 206.261719 137.570312 151.644531 137.570312 L 101.5625 137.570312 C 46.941406 137.570312 2.503906 182.011719 2.503906 236.632812 Z M 101.5625 159.101562 L 151.644531 159.101562 C 193.667969 159.101562 227.996094 192.714844 229.140625 234.464844 L 24.066406 234.464844 C 25.21875 192.714844 59.535156 159.101562 101.5625 159.101562 Z M 101.5625 159.101562 " fill-opacity="1" fill-rule="nonzero"/></g><path fill="#40646b" d="M 314.722656 103.136719 L 269.15625 103.136719 L 269.15625 57.570312 C 269.15625 51.617188 264.34375 46.804688 258.390625 46.804688 C 252.441406 46.804688 247.625 51.617188 247.625 57.570312 L 247.625 103.136719 L 202.066406 103.136719 C 196.117188 103.136719 191.300781 107.953125 191.300781 113.902344 C 191.300781 119.855469 196.117188 124.667969 202.066406 124.667969 L 247.625 124.667969 L 247.625 170.238281 C 247.625 176.1875 252.441406 181.003906 258.390625 181.003906 C 264.34375 181.003906 269.15625 176.1875 269.15625 170.238281 L 269.15625 124.667969 L 314.722656 124.667969 C 320.675781 124.667969 325.492188 119.855469 325.492188 113.902344 C 325.492188 107.953125 320.675781 103.136719 314.722656 103.136719 Z M 314.722656 103.136719 " fill-opacity="1" fill-rule="nonzero"/></svg>