<svg xmlns="http://www.w3.org/2000/svg" xmlns:xlink="http://www.w3.org/1999/xlink" width="321" zoomAndPan="magnify" viewBox="0 0 240.75 264.749997" height="353" preserveAspectRatio="xMidYMid meet" version="1.0"><defs><clipPath id="ca11914afe"><path d="M 2 0.0117188 L 240 0.0117188 L 240 264.214844 L 2 264.214844 Z M 2 0.0117188 " clip-rule="nonzero"/></clipPath></defs><g clip-path="url(#ca11914afe)"><path fill="#40646b" d="M 237.628906 248.304688 L 180.175781 172.332031 C 181.644531 170.734375 183.058594 169.09375 184.421875 167.410156 C 185.789062 165.722656 187.097656 163.992188 188.351562 162.222656 C 189.605469 160.457031 190.804688 158.648438 191.941406 156.800781 C 193.082031 154.957031 194.164062 153.078125 195.183594 151.164062 C 196.203125 149.25 197.164062 147.304688 198.058594 145.328125 C 198.957031 143.355469 199.792969 141.355469 200.5625 139.324219 C 201.332031 137.296875 202.035156 135.25 202.675781 133.175781 C 203.316406 131.101562 203.890625 129.011719 204.398438 126.902344 C 204.90625 124.792969 205.34375 122.671875 205.71875 120.535156 C 206.089844 118.398438 206.394531 116.25 206.632812 114.09375 C 206.867188 111.941406 207.035156 109.777344 207.136719 107.609375 C 207.234375 105.445312 207.265625 103.277344 207.226562 101.109375 C 207.1875 98.9375 207.082031 96.773438 206.90625 94.613281 C 206.730469 92.449219 206.488281 90.296875 206.175781 88.148438 C 205.863281 86.003906 205.484375 83.867188 205.035156 81.746094 C 204.585938 79.625 204.074219 77.515625 203.492188 75.429688 C 202.910156 73.339844 202.261719 71.269531 201.550781 69.21875 C 200.835938 67.171875 200.058594 65.148438 199.21875 63.148438 C 198.378906 61.148438 197.472656 59.179688 196.507812 57.234375 C 195.542969 55.292969 194.515625 53.386719 193.425781 51.507812 C 192.339844 49.632812 191.195312 47.789062 189.992188 45.988281 C 188.785156 44.183594 187.527344 42.417969 186.210938 40.695312 C 184.894531 38.96875 183.523438 37.289062 182.101562 35.652344 C 180.679688 34.015625 179.207031 32.425781 177.683594 30.878906 C 176.15625 29.335938 174.585938 27.84375 172.96875 26.398438 C 171.351562 24.953125 169.6875 23.5625 167.980469 22.226562 C 166.273438 20.886719 164.527344 19.601562 162.738281 18.375 C 160.949219 17.148438 159.125 15.976562 157.261719 14.867188 C 155.398438 13.753906 153.503906 12.703125 151.574219 11.710938 C 149.644531 10.71875 147.6875 9.789062 145.699219 8.921875 C 143.710938 8.054688 141.695312 7.253906 139.65625 6.511719 C 137.617188 5.773438 135.558594 5.097656 133.476562 4.492188 C 131.394531 3.882812 129.296875 3.339844 127.179688 2.863281 C 125.0625 2.386719 122.933594 1.980469 120.789062 1.640625 C 118.648438 1.300781 116.496094 1.027344 114.339844 0.824219 C 112.179688 0.621094 110.015625 0.484375 107.847656 0.417969 C 105.679688 0.351562 103.511719 0.355469 101.34375 0.425781 C 99.175781 0.496094 97.011719 0.636719 94.851562 0.84375 C 92.695312 1.050781 90.542969 1.328125 88.402344 1.671875 C 86.261719 2.019531 84.132812 2.429688 82.015625 2.910156 C 79.902344 3.390625 77.804688 3.9375 75.722656 4.546875 C 73.640625 5.160156 71.582031 5.839844 69.546875 6.582031 C 67.507812 7.328125 65.496094 8.132812 63.507812 9.003906 C 61.523438 9.878906 59.566406 10.808594 57.636719 11.804688 C 55.710938 12.800781 53.816406 13.855469 51.957031 14.972656 C 50.097656 16.089844 48.273438 17.261719 46.488281 18.492188 C 44.703125 19.722656 42.957031 21.011719 41.253906 22.351562 C 39.550781 23.695312 37.890625 25.089844 36.273438 26.535156 C 34.660156 27.984375 33.089844 29.480469 31.570312 31.027344 C 30.050781 32.574219 28.578125 34.167969 27.160156 35.808594 C 25.742188 37.449219 24.375 39.132812 23.0625 40.859375 C 21.75 42.585938 20.492188 44.351562 19.292969 46.160156 C 18.089844 47.964844 16.949219 49.808594 15.867188 51.6875 C 14.78125 53.566406 13.757812 55.476562 12.796875 57.421875 C 11.835938 59.367188 10.933594 61.339844 10.097656 63.339844 C 9.261719 65.339844 8.488281 67.367188 7.78125 69.417969 C 7.070312 71.464844 6.429688 73.535156 5.851562 75.628906 C 5.273438 77.71875 4.761719 79.824219 4.320312 81.949219 C 3.875 84.070312 3.5 86.207031 3.191406 88.355469 C 2.886719 90.5 2.644531 92.65625 2.472656 94.820312 C 2.300781 96.980469 2.199219 99.144531 2.167969 101.316406 C 2.132812 103.484375 2.167969 105.652344 2.269531 107.816406 C 2.375 109.984375 2.546875 112.144531 2.789062 114.300781 C 3.027344 116.457031 3.335938 118.601562 3.714844 120.738281 C 4.09375 122.875 4.535156 124.996094 5.046875 127.105469 C 5.558594 129.214844 6.136719 131.300781 6.78125 133.375 C 7.425781 135.445312 8.136719 137.492188 8.910156 139.519531 C 9.683594 141.546875 10.523438 143.546875 11.421875 145.519531 C 12.324219 147.492188 13.285156 149.433594 14.3125 151.347656 C 15.335938 153.257812 16.417969 155.136719 17.5625 156.976562 C 18.707031 158.820312 19.90625 160.625 21.167969 162.394531 C 22.425781 164.160156 23.738281 165.886719 25.105469 167.570312 C 26.472656 169.253906 27.890625 170.890625 29.363281 172.484375 C 30.835938 174.078125 32.355469 175.625 33.925781 177.121094 C 35.496094 178.617188 37.109375 180.0625 38.773438 181.457031 C 40.433594 182.851562 42.136719 184.191406 43.882812 185.480469 C 45.628906 186.765625 47.414062 187.996094 49.238281 189.167969 C 51.066406 190.34375 52.925781 191.457031 54.820312 192.511719 C 56.714844 193.566406 58.640625 194.558594 60.601562 195.492188 C 62.558594 196.425781 64.542969 197.296875 66.558594 198.101562 C 68.570312 198.910156 70.609375 199.652344 72.667969 200.328125 C 74.730469 201.007812 76.808594 201.617188 78.910156 202.164062 C 81.007812 202.707031 83.121094 203.1875 85.25 203.597656 C 87.382812 204.011719 89.523438 204.351562 91.671875 204.628906 C 93.824219 204.90625 95.984375 205.113281 98.148438 205.25 C 100.3125 205.386719 102.480469 205.457031 104.648438 205.460938 C 106.816406 205.460938 108.984375 205.394531 111.148438 205.257812 C 113.3125 205.121094 115.472656 204.914062 117.625 204.640625 C 119.777344 204.367188 121.917969 204.027344 124.046875 203.617188 C 126.175781 203.207031 128.292969 202.730469 130.390625 202.1875 C 132.492188 201.644531 134.574219 201.035156 136.632812 200.359375 C 138.695312 199.683594 140.734375 198.945312 142.746094 198.140625 C 144.761719 197.335938 146.746094 196.46875 148.707031 195.535156 C 150.667969 194.605469 152.59375 193.613281 154.488281 192.558594 C 156.386719 191.507812 158.246094 190.394531 160.074219 189.222656 C 161.898438 188.050781 163.683594 186.824219 165.433594 185.539062 L 221.902344 260.222656 C 222.292969 260.742188 222.734375 261.21875 223.21875 261.652344 C 223.707031 262.085938 224.230469 262.464844 224.792969 262.796875 C 225.351562 263.128906 225.941406 263.398438 226.554688 263.613281 C 227.171875 263.828125 227.800781 263.980469 228.445312 264.070312 C 229.089844 264.160156 229.738281 264.1875 230.390625 264.148438 C 231.039062 264.113281 231.679688 264.011719 232.3125 263.847656 C 232.941406 263.683594 233.550781 263.460938 234.136719 263.179688 C 234.722656 262.894531 235.277344 262.558594 235.796875 262.164062 C 236.316406 261.773438 236.792969 261.332031 237.226562 260.847656 C 237.660156 260.359375 238.042969 259.835938 238.371094 259.273438 C 238.703125 258.714844 238.972656 258.125 239.1875 257.511719 C 239.402344 256.894531 239.554688 256.265625 239.644531 255.621094 C 239.734375 254.972656 239.761719 254.328125 239.726562 253.675781 C 239.6875 253.027344 239.585938 252.386719 239.421875 251.753906 C 239.261719 251.125 239.035156 250.515625 238.753906 249.929688 C 238.46875 249.34375 238.132812 248.789062 237.738281 248.269531 Z M 18.773438 102.902344 C 18.773438 101.496094 18.808594 100.089844 18.875 98.683594 C 18.945312 97.277344 19.046875 95.875 19.1875 94.476562 C 19.324219 93.074219 19.496094 91.679688 19.703125 90.289062 C 19.90625 88.898438 20.148438 87.511719 20.421875 86.132812 C 20.695312 84.753906 21.003906 83.378906 21.347656 82.015625 C 21.6875 80.652344 22.0625 79.296875 22.472656 77.949219 C 22.878906 76.601562 23.320312 75.265625 23.792969 73.941406 C 24.269531 72.617188 24.773438 71.304688 25.3125 70.007812 C 25.851562 68.707031 26.417969 67.421875 27.019531 66.148438 C 27.621094 64.878906 28.253906 63.621094 28.917969 62.378906 C 29.582031 61.140625 30.273438 59.914062 30.996094 58.710938 C 31.71875 57.503906 32.472656 56.3125 33.253906 55.144531 C 34.035156 53.976562 34.84375 52.824219 35.683594 51.695312 C 36.519531 50.566406 37.386719 49.457031 38.277344 48.367188 C 39.171875 47.28125 40.089844 46.214844 41.03125 45.175781 C 41.976562 44.132812 42.949219 43.113281 43.941406 42.117188 C 44.9375 41.125 45.957031 40.152344 46.996094 39.207031 C 48.039062 38.265625 49.105469 37.34375 50.191406 36.453125 C 51.277344 35.558594 52.386719 34.695312 53.515625 33.855469 C 54.648438 33.019531 55.796875 32.207031 56.964844 31.425781 C 58.136719 30.644531 59.324219 29.894531 60.53125 29.167969 C 61.738281 28.445312 62.960938 27.753906 64.203125 27.089844 C 65.441406 26.425781 66.699219 25.792969 67.96875 25.191406 C 69.242188 24.589844 70.527344 24.019531 71.828125 23.484375 C 73.125 22.945312 74.4375 22.4375 75.761719 21.964844 C 77.085938 21.488281 78.421875 21.046875 79.769531 20.640625 C 81.113281 20.230469 82.46875 19.855469 83.835938 19.515625 C 85.199219 19.171875 86.570312 18.863281 87.953125 18.589844 C 89.332031 18.316406 90.714844 18.074219 92.109375 17.867188 C 93.5 17.664062 94.894531 17.488281 96.296875 17.351562 C 97.695312 17.214844 99.097656 17.109375 100.503906 17.042969 C 101.90625 16.972656 103.3125 16.9375 104.71875 16.9375 C 106.128906 16.9375 107.535156 16.972656 108.9375 17.039062 C 110.34375 17.109375 111.746094 17.214844 113.144531 17.351562 C 114.546875 17.488281 115.941406 17.660156 117.332031 17.867188 C 118.726562 18.074219 120.109375 18.3125 121.488281 18.589844 C 122.871094 18.863281 124.242188 19.171875 125.605469 19.511719 C 126.972656 19.855469 128.328125 20.230469 129.671875 20.636719 C 131.019531 21.046875 132.355469 21.488281 133.679688 21.960938 C 135.003906 22.433594 136.316406 22.941406 137.613281 23.480469 C 138.914062 24.019531 140.199219 24.585938 141.472656 25.1875 C 142.742188 25.789062 144 26.421875 145.242188 27.085938 C 146.480469 27.75 147.703125 28.441406 148.910156 29.164062 C 150.117188 29.886719 151.304688 30.640625 152.476562 31.421875 C 153.644531 32.203125 154.796875 33.015625 155.925781 33.851562 C 157.054688 34.691406 158.164062 35.554688 159.25 36.449219 C 160.339844 37.339844 161.402344 38.257812 162.445312 39.203125 C 163.488281 40.148438 164.507812 41.117188 165.5 42.113281 C 166.496094 43.105469 167.464844 44.125 168.410156 45.167969 C 169.355469 46.210938 170.273438 47.273438 171.167969 48.363281 C 172.058594 49.449219 172.925781 50.558594 173.761719 51.6875 C 174.601562 52.820312 175.410156 53.96875 176.191406 55.136719 C 176.972656 56.308594 177.726562 57.496094 178.449219 58.703125 C 179.171875 59.910156 179.863281 61.132812 180.527344 62.375 C 181.191406 63.613281 181.824219 64.871094 182.425781 66.140625 C 183.027344 67.414062 183.597656 68.699219 184.132812 70 C 184.671875 71.296875 185.179688 72.609375 185.652344 73.933594 C 186.125 75.257812 186.566406 76.59375 186.976562 77.941406 C 187.382812 79.289062 187.757812 80.644531 188.101562 82.007812 C 188.441406 83.371094 188.75 84.742188 189.023438 86.125 C 189.300781 87.503906 189.539062 88.890625 189.746094 90.28125 C 189.953125 91.671875 190.125 93.066406 190.261719 94.46875 C 190.402344 95.867188 190.503906 97.269531 190.574219 98.675781 C 190.640625 100.082031 190.675781 101.488281 190.675781 102.894531 C 190.675781 104.300781 190.640625 105.707031 190.574219 107.109375 C 190.503906 108.515625 190.398438 109.917969 190.261719 111.320312 C 190.125 112.71875 189.953125 114.113281 189.746094 115.503906 C 189.539062 116.898438 189.296875 118.28125 189.023438 119.664062 C 188.75 121.042969 188.441406 122.414062 188.097656 123.777344 C 187.757812 125.144531 187.382812 126.5 186.972656 127.84375 C 186.566406 129.191406 186.125 130.527344 185.648438 131.851562 C 185.175781 133.175781 184.667969 134.488281 184.132812 135.785156 C 183.59375 137.085938 183.023438 138.371094 182.421875 139.644531 C 181.820312 140.914062 181.1875 142.171875 180.523438 143.414062 C 179.859375 144.652344 179.167969 145.875 178.445312 147.082031 C 177.722656 148.289062 176.96875 149.476562 176.1875 150.648438 C 175.40625 151.816406 174.59375 152.964844 173.757812 154.097656 C 172.917969 155.226562 172.054688 156.335938 171.160156 157.421875 C 170.269531 158.507812 169.351562 159.574219 168.40625 160.617188 C 167.460938 161.660156 166.492188 162.675781 165.496094 163.671875 C 164.5 164.667969 163.484375 165.636719 162.441406 166.582031 C 161.398438 167.523438 160.332031 168.445312 159.246094 169.335938 C 158.15625 170.226562 157.046875 171.09375 155.917969 171.929688 C 154.789062 172.769531 153.640625 173.578125 152.46875 174.359375 C 151.300781 175.140625 150.109375 175.894531 148.90625 176.617188 C 147.699219 177.339844 146.472656 178.03125 145.234375 178.695312 C 143.992188 179.359375 142.738281 179.992188 141.464844 180.59375 C 140.191406 181.195312 138.90625 181.765625 137.609375 182.300781 C 136.308594 182.839844 134.996094 183.347656 133.671875 183.820312 C 132.347656 184.292969 131.011719 184.734375 129.664062 185.144531 C 128.320312 185.550781 126.964844 185.925781 125.597656 186.265625 C 124.234375 186.609375 122.863281 186.917969 121.480469 187.191406 C 120.101562 187.464844 118.714844 187.707031 117.324219 187.910156 C 115.933594 188.117188 114.539062 188.289062 113.136719 188.429688 C 111.738281 188.566406 110.335938 188.667969 108.929688 188.738281 C 107.523438 188.804688 106.121094 188.839844 104.710938 188.839844 C 103.304688 188.839844 101.902344 188.804688 100.496094 188.738281 C 99.089844 188.667969 97.6875 188.5625 96.289062 188.425781 C 94.890625 188.289062 93.496094 188.117188 92.101562 187.910156 C 90.710938 187.703125 89.328125 187.460938 87.949219 187.1875 C 86.566406 186.914062 85.195312 186.605469 83.832031 186.261719 C 82.46875 185.921875 81.113281 185.546875 79.765625 185.136719 C 78.421875 184.730469 77.085938 184.289062 75.761719 183.8125 C 74.4375 183.339844 73.125 182.835938 71.828125 182.296875 C 70.527344 181.757812 69.242188 181.1875 67.972656 180.585938 C 66.699219 179.984375 65.445312 179.351562 64.203125 178.691406 C 62.964844 178.027344 61.738281 177.332031 60.535156 176.609375 C 59.328125 175.886719 58.140625 175.136719 56.96875 174.355469 C 55.800781 173.570312 54.652344 172.761719 53.523438 171.925781 C 52.390625 171.085938 51.285156 170.222656 50.195312 169.328125 C 49.109375 168.4375 48.042969 167.519531 47.003906 166.574219 C 45.960938 165.628906 44.941406 164.660156 43.949219 163.667969 C 42.953125 162.671875 41.984375 161.652344 41.039062 160.609375 C 40.09375 159.570312 39.175781 158.503906 38.285156 157.417969 C 37.390625 156.332031 36.527344 155.222656 35.6875 154.09375 C 34.851562 152.960938 34.042969 151.8125 33.261719 150.644531 C 32.480469 149.472656 31.726562 148.285156 31.003906 147.082031 C 30.28125 145.875 29.585938 144.652344 28.925781 143.410156 C 28.261719 142.171875 27.628906 140.914062 27.027344 139.644531 C 26.425781 138.371094 25.855469 137.085938 25.316406 135.785156 C 24.78125 134.488281 24.273438 133.175781 23.800781 131.851562 C 23.324219 130.527344 22.886719 129.191406 22.476562 127.847656 C 22.066406 126.5 21.691406 125.144531 21.351562 123.78125 C 21.007812 122.417969 20.699219 121.046875 20.425781 119.667969 C 20.152344 118.285156 19.910156 116.902344 19.703125 115.511719 C 19.5 114.121094 19.324219 112.722656 19.1875 111.324219 C 19.050781 109.925781 18.945312 108.523438 18.878906 107.117188 C 18.808594 105.714844 18.773438 104.308594 18.773438 102.902344 Z M 18.773438 102.902344 " fill-opacity="1" fill-rule="nonzero"/></g><path fill="#40646b" d="M 82.535156 71.898438 L 103.488281 92.851562 L 124.441406 71.898438 C 131.777344 64.5625 142.777344 75.5625 135.441406 82.898438 L 114.488281 103.851562 L 135.441406 124.804688 C 142.777344 132.136719 131.777344 143.136719 124.441406 135.804688 L 103.488281 114.851562 L 82.535156 135.804688 C 75.203125 143.136719 64.203125 132.136719 71.535156 124.804688 L 92.488281 103.851562 L 71.535156 82.898438 C 64.203125 75.5625 75.203125 64.5625 82.535156 71.898438 Z M 82.535156 71.898438 " fill-opacity="1" fill-rule="evenodd"/></svg>